<svg id="popup_error" xmlns="http://www.w3.org/2000/svg" width="86" height="86" viewBox="0 0 86 86">
  <path id="Fill_1" data-name="Fill 1" d="M65.249,79.8a3.359,3.359,0,1,0-3.481-5.746A36.6,36.6,0,1,1,73.129,63.137a3.359,3.359,0,1,0,5.585,3.734,42.978,42.978,0,0,0-66.12-54.277A43,43,0,0,0,65.249,79.8" fill="#006e94"/>
  <path id="Icon_ionic-ios-close" data-name="Icon ionic-ios-close" d="M35.827,31.124,50,16.951a3.321,3.321,0,1,0-4.7-4.7L31.131,26.427,16.958,12.255a3.321,3.321,0,1,0-4.7,4.7L26.434,31.124,12.262,45.3a3.321,3.321,0,1,0,4.7,4.7L31.131,35.82,45.3,49.993A3.321,3.321,0,1,0,50,45.3Z" transform="translate(12.715 11.876)" fill="#db4242"/>
</svg>
