<svg id="popup_questionMark" xmlns="http://www.w3.org/2000/svg" width="86" height="86" viewBox="0 0 86 86">
  <path id="Fill_1" data-name="Fill 1" d="M65.249,79.8a3.359,3.359,0,1,0-3.481-5.746A36.6,36.6,0,1,1,73.129,63.137a3.359,3.359,0,1,0,5.585,3.734,42.978,42.978,0,0,0-66.12-54.277A43,43,0,0,0,65.249,79.8" fill="#006e94"/>
  <path id="Path" d="M17.469,32.082V27.571a14,14,0,0,0,10.74-14.129A14.156,14.156,0,0,0,4.256,3.953,13.755,13.755,0,0,0,0,13.942a3.359,3.359,0,0,0,6.719,0,7.092,7.092,0,0,1,2.2-5.149A7.433,7.433,0,0,1,14.4,6.724,7.254,7.254,0,0,1,15.73,21.078a6.281,6.281,0,0,0-4.98,6.163v4.842a3.359,3.359,0,0,0,6.719,0" transform="translate(28.723 20.156)" fill="#db4242"/>
  <path id="Path-2" data-name="Path" d="M3.359,6.719A3.359,3.359,0,1,1,6.719,3.359,3.359,3.359,0,0,1,3.359,6.719" transform="translate(39.473 60.637)" fill="#db4242"/>
</svg>
